/* XPM */
{
"4 29 3 1",
"  c None",
"! c #afafaf",
". c #dfdfdf",
"!!!!",
"!!!!",
"!!..",
"!!..",
"!!..",
"!!..",
"!!..",
"!!..",
"!!..",
"!!..",
"!!..",
"!!..",
"!!..",
"!!..",
"!!..",
"!!..",
"!!..",
"!!..",
"!!..",
"!!..",
"!!..",
"!!..",
"!!..",
"!!..",
"!!..",
"!!..",
"!!!!",
"!!  ",
"!!  "
}
