/* XPM */
{
"26 33 5 1",
"  c None",
"! c #afafaf",
"$ c #4f4f4f",
"% c #efefef",
". c #1f1f1f",
"                          ",
"                          ",
"..........................",
"..........................",
"!!!!!!!!!!!!!!!!!!!!!!!!!!",
"!!!!!!!!!!!!!!!!!!!!!!!!!$",
"!!......................$$",
"!!......................$$",
"!!......................$$",
"!!......................$$",
"!!......................$$",
"!!...%%%%%%%%%%%%%%%%...$$",
"!!...%%%%%%%%%%%%%%%%...$$",
"!!...%%%%%%%%%%%%%%%%...$$",
"!!...%%%..........%%%...$$",
"!!.....%..........%.....$$",
"!!.....%..........%.....$$",
"!!.....%..........%.....$$",
"!!.....%..........%.....$$",
"!!.....%..........%.....$$",
"!!.....%..........%.....$$",
"!!.....%..........%.....$$",
"!!.....%%%%%%%%%%%%.....$$",
"!!......................$$",
"!!......................$$",
"!!......................$$",
"!!......................$$",
"!!......................$$",
"!$$$$$$$$$$$$$$$$$$$$$$$$$",
"$$$$$$$$$$$$$$$$$$$$$$$$$$",
"..........................",
"..........................",
"                          "
}
