/* XPM */
{
"4 4 3 1",
"  c None",
"! c #4f4f4f",
"$ c #afafaf",
"$$  ",
"$$  ",
"$!!!",
"!!!!"
}
