/* XPM */
{
"30 33 3 1",
"  c None",
"! c #bfbfef",
". c #1f1f1f",
"                              ",
"                              ",
"..............................",
"..............................",
"..............................",
"..............................",
"..............................",
"..............................",
"..............................",
"..............................",
"..............................",
"..............................",
"..............................",
"..............................",
"..............................",
"...........!!!!!!!!...........",
"............!!!!!!............",
".............!!!!.............",
"..............!!..............",
"..............................",
"..............................",
"..............................",
"..............................",
"..............................",
"..............................",
"..............................",
"..............................",
"..............................",
"..............................",
"..............................",
"..............................",
"..............................",
"                              "
}
