/* XPM */
{
"1 33 3 1",
"! c #afafaf",
"$ c #1f1f1f",
"% c #4f4f4f",
"!",
"!",
"$",
"$",
"$",
"$",
"$",
"$",
"$",
"$",
"$",
"$",
"$",
"$",
"$",
"$",
"$",
"$",
"$",
"$",
"$",
"$",
"$",
"$",
"$",
"$",
"$",
"$",
"$",
"$",
"$",
"$",
"%"
}
