/* XPM */
{
"26 33 6 1",
"  c None",
"! c #afafaf",
"$ c #4f4f4f",
"% c #0f0f0f",
". c #dfdfdf",
"_ c #ababe3"
"                          ",
"                          ",
"..........................",
"..........................",
"!!!!!!!!!!!!!!!!!!!!!!!!!!",
"!!!!!!!!!!!!!!!!!!!!!!!!!$",
"!!______________________$$",
"!!______________________$$",
"!!______________________$$",
"!!______________________$$",
"!!______________________$$",
"!!______________________$$",
"!!_____%%________%%_____$$",
"!!______%%______%%______$$",
"!!_______%%____%%_______$$",
"!!________%%__%%________$$",
"!!_________%%%%_________$$",
"!!__________%%__________$$",
"!!_________%%%%_________$$",
"!!________%%__%%________$$",
"!!_______%%____%%_______$$",
"!!______%%______%%______$$",
"!!_____%%________%%_____$$",
"!!______________________$$",
"!!______________________$$",
"!!______________________$$",
"!!______________________$$",
"!!______________________$$",
"!$$$$$$$$$$$$$$$$$$$$$$$$$",
"$$$$$$$$$$$$$$$$$$$$$$$$$$",
"..........................",
"..........................",
"                          "
}
