/* XPM */
{
"1 33 2 1",
"! c #afafaf",
"$ c #dfdfdf",
"!",
"!",
"$",
"$",
"$",
"$",
"$",
"$",
"$",
"$",
"$",
"$",
"$",
"$",
"$",
"$",
"$",
"$",
"$",
"$",
"$",
"$",
"$",
"$",
"$",
"$",
"$",
"$",
"$",
"$",
"$",
"$",
"!"
}
