/* XPM */
{
"4 33 3 1",
"  c None",
"! c #afafaf",
". c #dfdfdf",
"!!!!",
"!!!!",
"!!..",
"!!..",
"!!..",
"!!..",
"!!..",
"!!..",
"!!..",
"!!..",
"!!..",
"!!..",
"!!..",
"!!..",
"!!..",
"!!..",
"!!..",
"!!..",
"!!..",
"!!..",
"!!..",
"!!..",
"!!..",
"!!..",
"!!..",
"!!..",
"!!..",
"!!..",
"!!..",
"!!..",
"!!..",
"!!..",
"!!!!",
"!!  ",
"!!  "
}
