/* XPM */
{
"6 6 2 1",
"  c None",
"! c #4f4f4f",
"   !!!",
"   !!!",
"   !!!",
"!!!!!!",
"!!!!!!",
"!!!!!!"
}
