/* XPM */
{
"30 41 6 1",
"  c None",
"! c #afafaf",
"$ c #4f4f4f",
"% c #efefef",
". c #1f1f1f",
"_ c #1a1a52"
"                              ",
"                              ",
"                              ",
"..............................",
"..............................",
"..............................",
"!!!!!!!!!!!!!!!!!!!!!!!!!!!!!!",
"!!!!!!!!!!!!!!!!!!!!!!!!!!!!!$",
"!!!!!!!!!!!!!!!!!!!!!!!!!!!!$$",
"!!!________________________$$$",
"!!!________________________$$$",
"!!!________________________$$$",
"!!!________________________$$$",
"!!!________________________$$$",
"!!!________________________$$$",
"!!!________________________$$$",
"!!!_____%%%________%%%_____$$$",
"!!!______%%%______%%%______$$$",
"!!!_______%%%____%%%_______$$$",
"!!!________%%%__%%%________$$$",
"!!!_________%%%%%%_________$$$",
"!!!__________%%%%__________$$$",
"!!!_________%%%%%%_________$$$",
"!!!________%%%__%%%________$$$",
"!!!_______%%%____%%%_______$$$",
"!!!______%%%______%%%______$$$",
"!!!_____%%%________%%%_____$$$",
"!!!________________________$$$",
"!!!________________________$$$",
"!!!________________________$$$",
"!!!________________________$$$",
"!!!________________________$$$",
"!!!________________________$$$",
"!!$$$$$$$$$$$$$$$$$$$$$$$$$$$$",
"!$$$$$$$$$$$$$$$$$$$$$$$$$$$$$",
"$$$$$$$$$$$$$$$$$$$$$$$$$$$$$$",
"..............................",
"..............................",
"..............................",
"                              ",
"                              "
}
