/* XPM */
{
"36 41 3 1",
"  c None",
"! c #afafaf",
". c #1f1f1f",
"                                    ",
"                                    ",
"                                    ",
"....................................",
"....................................",
"....................................",
"....................................",
"....................................",
"....................................",
"....................................",
"....................................",
"....................................",
"....................................",
"....................................",
"....................................",
"....................................",
"....................................",
"....................................",
"............!!!!!!!!!!!!............",
".............!!!!!!!!!!.............",
"..............!!!!!!!!..............",
"...............!!!!!!...............",
"................!!!!................",
".................!!.................",
"....................................",
"....................................",
"....................................",
"....................................",
"....................................",
"....................................",
"....................................",
"....................................",
"....................................",
"....................................",
"....................................",
"....................................",
"....................................",
"....................................",
"....................................",
"                                    ",
"                                    "
}
