/* XPM */
{
"6 44 3 1",
"  c None",
"! c #4f4f4f",
". c #1f1f1f",
"!!!!!!",
"!!!!!!",
"!!!!!!",
"...!!!",
"...!!!",
"...!!!",
"...!!!",
"...!!!",
"...!!!",
"...!!!",
"...!!!",
"...!!!",
"...!!!",
"...!!!",
"...!!!",
"...!!!",
"...!!!",
"...!!!",
"...!!!",
"...!!!",
"...!!!",
"...!!!",
"...!!!",
"...!!!",
"...!!!",
"...!!!",
"...!!!",
"...!!!",
"...!!!",
"...!!!",
"...!!!",
"...!!!",
"...!!!",
"...!!!",
"...!!!",
"...!!!",
"...!!!",
"...!!!",
"...!!!",
"!!!!!!",
"!!!!!!",
"   !!!",
"   !!!",
"   !!!"
}
