/* XPM */
{
"6 6 3 1",
"  c None",
"! c #4f4f4f",
"$ c #afafaf",
"$$$   ",
"$$$   ",
"$$$   ",
"$$!!!!",
"$!!!!!",
"!!!!!!"
}
