/* XPM */
{
"6 6 2 1",
"  c None",
"! c #afafaf",
"!!!   ",
"!!!   ",
"!!!   ",
"!!!!!!",
"!!!!!!",
"!!!!!!"
}
