/* XPM */
{
"30 41 5 1",
"  c None",
"! c #a7a7a7",
"$ c #575757",
"% c #afafaf",
". c #dfdfdf",
"                              ",
"                              ",
"                              ",
"..............................",
"..............................",
"..............................",
"!!!!!!!!!!!!!!!!!!!!!!!!!!!!!!",
"!!!!!!!!!!!!!!!!!!!!!!!!!!!!!$",
"!!!!!!!!!!!!!!!!!!!!!!!!!!!!$$",
"!!!........................$$$",
"!!!........................$$$",
"!!!........................$$$",
"!!!........................$$$",
"!!!........................$$$",
"!!!........................$$$",
"!!!...%%%%%%%%%%%%%%%%%%...$$$",
"!!!...%%%%%%%%%%%%%%%%%%...$$$",
"!!!...%%%%%%%%%%%%%%%%%%...$$$",
"!!!...%%%%..........%%%%...$$$",
"!!!.....%%..........%%.....$$$",
"!!!.....%%..........%%.....$$$",
"!!!.....%%..........%%.....$$$",
"!!!.....%%..........%%.....$$$",
"!!!.....%%..........%%.....$$$",
"!!!.....%%..........%%.....$$$",
"!!!.....%%%%%%%%%%%%%%.....$$$",
"!!!.....%%%%%%%%%%%%%%.....$$$",
"!!!........................$$$",
"!!!........................$$$",
"!!!........................$$$",
"!!!........................$$$",
"!!!........................$$$",
"!!!........................$$$",
"!!$$$$$$$$$$$$$$$$$$$$$$$$$$$$",
"!$$$$$$$$$$$$$$$$$$$$$$$$$$$$$",
"$$$$$$$$$$$$$$$$$$$$$$$$$$$$$$",
"..............................",
"..............................",
"..............................",
"                              ",
"                              "
}
