/* XPM */
{
"6 44 4 1",
"  c None",
"! c #afafaf",
"$ c #4f4f4f",
". c #dfdfdf",
"!!!!!!",
"!!!!!$",
"!!!!$$",
"...$$$",
"...$$$",
"...$$$",
"...$$$",
"...$$$",
"...$$$",
"...$$$",
"...$$$",
"...$$$",
"...$$$",
"...$$$",
"...$$$",
"...$$$",
"...$$$",
"...$$$",
"...$$$",
"...$$$",
"...$$$",
"...$$$",
"...$$$",
"...$$$",
"...$$$",
"...$$$",
"...$$$",
"...$$$",
"...$$$",
"...$$$",
"...$$$",
"...$$$",
"...$$$",
"...$$$",
"...$$$",
"...$$$",
"...$$$",
"...$$$",
"...$$$",
"!!!$$$",
"!!!$$$",
"   $$$",
"   $$$",
"   $$$"
}
