/* XPM */
{
"20 27 6 1",
"  c None",
"! c #afafaf",
"$ c #4f4f4f",
"% c #efefef",
". c #1f1f1f",
"_ c #1a1a52"
"                    ",
"                    ",
"....................",
"....................",
"!!!!!!!!!!!!!!!!!!!!",
"!!!!!!!!!!!!!!!!!!!$",
"!!________________$$",
"!!________________$$",
"!!________________$$",
"!!________________$$",
"!!________________$$",
"!!____%%____%%____$$",
"!!_____%%__%%_____$$",
"!!______%%%%______$$",
"!!_______%%_______$$",
"!!______%%%%______$$",
"!!_____%%__%%_____$$",
"!!____%%____%%____$$",
"!!________________$$",
"!!________________$$",
"!!________________$$",
"!!________________$$",
"!$$$$$$$$$$$$$$$$$$$",
"$$$$$$$$$$$$$$$$$$$$",
"....................",
"....................",
"                    "
}
