/* XPM */
{
"1 27 2 1",
"! c #4f4f4f",
"$ c #1f1f1f",
"!",
"!",
"$",
"$",
"$",
"$",
"$",
"$",
"$",
"$",
"$",
"$",
"$",
"$",
"$",
"$",
"$",
"$",
"$",
"$",
"$",
"$",
"$",
"$",
"$",
"$",
"!"
}
