/* XPM */
{
"4 29 3 1",
"  c None",
"! c #4f4f4f",
". c #1f1f1f",
"!!!!",
"!!!!",
"..!!",
"..!!",
"..!!",
"..!!",
"..!!",
"..!!",
"..!!",
"..!!",
"..!!",
"..!!",
"..!!",
"..!!",
"..!!",
"..!!",
"..!!",
"..!!",
"..!!",
"..!!",
"..!!",
"..!!",
"..!!",
"..!!",
"..!!",
"..!!",
"!!!!",
"  !!",
"  !!"
}
