/* XPM */
{
"4 29 4 1",
"  c None",
"! c #afafaf",
"$ c #4f4f4f",
". c #1f1f1f",
"!!!!",
"!!!!",
"!!..",
"!!..",
"!!..",
"!!..",
"!!..",
"!!..",
"!!..",
"!!..",
"!!..",
"!!..",
"!!..",
"!!..",
"!!..",
"!!..",
"!!..",
"!!..",
"!!..",
"!!..",
"!!..",
"!!..",
"!!..",
"!!..",
"!!..",
"!!..",
"!!$$",
"!!  ",
"!!  "
}
